<svg xmlns="http://www.w3.org/2000/svg" viewBox="0 0 1121 408" width="1121" height="408">
  <defs>
    <linearGradient id="restText" x1="20%" y1="0%" x2="80%" y2="100%">
      <stop offset="0%" stop-color="#4A4A55"/>
      <stop offset="50%" stop-color="#2A2A35"/>
      <stop offset="100%" stop-color="#0A0A12"/>
    </linearGradient>
    <linearGradient id="aText" x1="20%" y1="0%" x2="80%" y2="100%">
      <stop offset="0%" stop-color="#5670EC"/>
      <stop offset="50%" stop-color="#2D44C9"/>
      <stop offset="100%" stop-color="#0F1A4D"/>
    </linearGradient>
    <filter id="softShadow" x="-5%" y="-5%" width="110%" height="115%">
      <feGaussianBlur in="SourceAlpha" stdDeviation="5"/>
      <feOffset dx="0" dy="4"/>
      <feComponentTransfer><feFuncA type="linear" slope="0.35"/></feComponentTransfer>
      <feMerge>
        <feMergeNode/>
        <feMergeNode in="SourceGraphic"/>
      </feMerge>
    </filter>
  </defs>
  <!-- 2026-05-22 mobile blur fix: removed filter="url(#softShadow)".
       See logo.svg for the rationale (same raster issue on mobile). -->
  <g>
    <path d="M499 124H237L195 0H16L270 702H468L722 0H541ZM455 256 368 513 282 256Z" fill="url(#aText)" transform="translate(60.0, 300.0) scale(0.2400, -0.2400)"/>
    <path d="M519 702V565H233V417H447V284H233V0H62V702Z" fill="url(#restText)" transform="translate(236.9, 300.0) scale(0.2400, -0.2400)"/>
    <path d="M46 708Q46 748 74.5 774.5Q103 801 148 801Q192 801 220.5 774.5Q249 748 249 708Q249 669 220.5 642.5Q192 616 148 616Q103 616 74.5 642.5Q46 669 46 708ZM233 558V0H62V558Z" fill="url(#restText)" transform="translate(368.2, 300.0) scale(0.2400, -0.2400)"/>
    <path d="M274 566Q333 566 377.5 542.0Q422 518 446 479V558H617V0H446V79Q421 40 376.5 16.0Q332 -8 273 -8Q205 -8 149.0 27.5Q93 63 60.5 128.5Q28 194 28 280Q28 366 60.5 431.0Q93 496 149.0 531.0Q205 566 274 566ZM324 417Q273 417 237.5 380.5Q202 344 202 280Q202 216 237.5 178.5Q273 141 324 141Q375 141 410.5 178.0Q446 215 446 279Q446 343 410.5 380.0Q375 417 324 417Z" fill="url(#restText)" transform="translate(439.0, 300.0) scale(0.2400, -0.2400)"/>
    <path d="M617 326V0H447V303Q447 359 418.0 390.0Q389 421 340 421Q291 421 262.0 390.0Q233 359 233 303V0H62V558H233V484Q259 521 303.0 542.5Q347 564 402 564Q500 564 558.5 500.5Q617 437 617 326Z" fill="url(#restText)" transform="translate(601.9, 300.0) scale(0.2400, -0.2400)"/>
    <path d="M308 566Q413 566 483.5 511.0Q554 456 576 356H394Q371 420 305 420Q258 420 230.0 383.5Q202 347 202 279Q202 211 230.0 174.5Q258 138 305 138Q371 138 394 202H576Q554 104 483.0 48.0Q412 -8 308 -8Q226 -8 162.5 27.0Q99 62 63.5 127.0Q28 192 28 279Q28 366 63.5 431.0Q99 496 162.5 531.0Q226 566 308 566Z" fill="url(#restText)" transform="translate(763.7, 300.0) scale(0.2400, -0.2400)"/>
    <path d="M28 279Q28 365 66.0 430.5Q104 496 170.0 531.0Q236 566 318 566Q400 566 466.0 531.0Q532 496 570.0 430.5Q608 365 608 279Q608 193 569.5 127.5Q531 62 464.5 27.0Q398 -8 316 -8Q234 -8 168.5 27.0Q103 62 65.5 127.0Q28 192 28 279ZM434 279Q434 346 400.5 382.0Q367 418 318 418Q268 418 235.0 382.5Q202 347 202 279Q202 212 234.5 176.0Q267 140 316 140Q365 140 399.5 176.0Q434 212 434 279Z" fill="url(#restText)" transform="translate(908.9, 300.0) scale(0.2400, -0.2400)"/>
  </g>
</svg>
